<?xml version="1.0" encoding="utf-8" standalone="no"?>
<!DOCTYPE svg PUBLIC "-//W3C//DTD SVG 1.1//EN"
  "http://www.w3.org/Graphics/SVG/1.1/DTD/svg11.dtd">
<svg xmlns:xlink="http://www.w3.org/1999/xlink" width="388.8pt" height="230.4pt" viewBox="0 0 388.8 230.4" xmlns="http://www.w3.org/2000/svg" version="1.1">
 <metadata>
  <rdf:RDF xmlns:dc="http://purl.org/dc/elements/1.1/" xmlns:cc="http://creativecommons.org/ns#" xmlns:rdf="http://www.w3.org/1999/02/22-rdf-syntax-ns#">
   <cc:Work>
    <dc:type rdf:resource="http://purl.org/dc/dcmitype/StillImage"/>
    <dc:date>2025-05-03T19:05:27.959110</dc:date>
    <dc:format>image/svg+xml</dc:format>
    <dc:creator>
     <cc:Agent>
      <dc:title>Matplotlib v3.8.1, https://matplotlib.org/</dc:title>
     </cc:Agent>
    </dc:creator>
   </cc:Work>
  </rdf:RDF>
 </metadata>
 <defs>
  <style type="text/css">*{stroke-linejoin: round; stroke-linecap: butt}</style>
 </defs>
 <g id="figure_1">
  <g id="patch_1">
   <path d="M 0 230.4 
L 388.8 230.4 
L 388.8 0 
L 0 0 
z
" style="fill: #ffffff"/>
  </g>
  <g id="axes_1">
   <g id="line2d_1">
    <path d="M -0.081955 149.427464 
L 1.707666 149.492892 
L 7.971338 149.574677 
L 10.655769 149.672819 
L 12.445389 149.689178 
L 19.603871 149.770963 
L 23.183113 149.836392 
L 28.551974 149.836392 
L 31.236405 149.934532 
L 33.920836 149.918173 
L 39.289698 150.130818 
L 41.079318 150.147177 
L 41.974129 150.261675 
L 43.763749 150.294392 
L 55.396283 151.455746 
L 57.185904 151.815606 
L 58.975524 152.11003 
L 59.870334 152.437172 
L 60.765145 152.633451 
L 61.659955 152.993311 
L 63.449576 153.484035 
L 67.923627 155.316017 
L 71.502868 157.442467 
L 75.082109 160.255855 
L 75.97692 161.253648 
L 76.87173 162.038789 
L 80.450971 165.83364 
L 81.345781 166.602451 
L 83.135402 168.66343 
L 85.819833 172.032977 
L 88.504264 176.056809 
L 89.399074 177.136397 
L 90.293884 178.494028 
L 91.188695 180.146106 
L 93.873125 184.333599 
L 96.557556 187.245111 
L 97.452367 188.013923 
L 98.347177 188.471886 
L 99.241987 188.390163 
L 100.136797 187.834003 
L 101.031608 186.607229 
L 101.926418 184.54625 
L 102.821228 182.14162 
L 103.716039 178.73934 
L 104.610849 173.815912 
L 105.505659 167.89469 
L 106.40047 160.583033 
L 107.29528 152.044602 
L 109.0849 130.81305 
L 111.769331 92.799225 
L 114.453762 51.792092 
L 116.243383 30.004668 
L 117.138193 21.891396 
L 118.033003 15.217621 
L 118.927814 11.863829 
L 119.822624 11.781818 
L 120.717434 13.663021 
L 121.612244 17.344136 
L 122.507055 23.968273 
L 123.401865 32.981501 
L 125.191486 55.21063 
L 131.455158 159.110875 
L 133.244778 182.861441 
L 134.139588 193.182735 
L 135.034399 200.90322 
L 135.929209 207.233415 
L 136.824019 212.27137 
L 137.71883 215.526462 
L 138.61364 217.865773 
L 139.50845 218.618182 
L 140.403261 217.816638 
L 142.192881 212.140513 
L 143.087691 208.214877 
L 144.877312 198.335217 
L 145.772122 191.776041 
L 146.666933 186.198328 
L 148.456553 173.554198 
L 152.035794 151.324889 
L 153.825415 142.606552 
L 155.615035 135.393042 
L 156.509846 132.530592 
L 157.404656 130.158765 
L 159.194277 127.083664 
L 160.089087 126.445709 
L 160.983897 126.26579 
L 161.878707 126.347585 
L 162.773518 126.854682 
L 163.668328 127.98326 
L 165.457949 131.303745 
L 166.352759 133.103082 
L 169.03719 139.858507 
L 170.82681 144.732966 
L 172.616431 149.312964 
L 174.406052 153.271376 
L 175.300862 155.087021 
L 176.195672 156.444674 
L 177.985293 158.62018 
L 178.880103 159.552508 
L 179.774913 160.108668 
L 180.669724 160.33765 
L 181.564534 160.435774 
L 182.459344 160.386712 
L 183.354154 160.17406 
L 184.248965 159.76516 
L 185.143775 159.225402 
L 189.617826 155.59409 
L 191.407447 153.974745 
L 194.091878 151.848316 
L 194.986688 151.292178 
L 197.671119 149.999961 
L 200.35555 149.263892 
L 202.14517 149.198464 
L 205.724412 149.705536 
L 209.303653 150.703315 
L 210.198463 151.063175 
L 216.462135 152.584381 
L 218.251756 152.780666 
L 221.830997 152.960593 
L 224.515428 153.009662 
L 226.305048 152.813384 
L 227.199859 152.846095 
L 229.884289 152.535312 
L 231.67391 152.404455 
L 233.463531 152.175459 
L 236.147962 152.011884 
L 237.937582 151.815606 
L 240.622013 151.684749 
L 243.306444 151.602961 
L 245.096064 151.504822 
L 260.307839 151.701101 
L 262.99227 151.61932 
L 275.519614 149.918173 
L 276.414425 149.672819 
L 285.362527 149.280249 
L 288.941769 149.345678 
L 291.626199 149.574677 
L 296.100251 149.672819 
L 297.889871 149.738249 
L 298.784682 149.803677 
L 299.679492 149.705536 
L 300.574302 149.770963 
L 302.363923 149.640105 
L 303.258733 149.656462 
L 305.048354 149.525606 
L 306.837974 149.525606 
L 309.522405 149.378392 
L 313.101646 149.149393 
L 317.575698 148.969464 
L 319.365318 148.969464 
L 321.154939 148.822251 
L 323.83937 148.805893 
L 324.73418 148.707751 
L 325.62899 148.773179 
L 331.892662 148.527822 
L 335.471904 148.462394 
L 340.840765 148.495108 
L 341.735576 148.462394 
L 343.525196 148.59325 
L 345.314817 148.642321 
L 348.894058 148.953108 
L 351.578489 148.953108 
L 354.26292 149.100321 
L 357.842161 149.133035 
L 360.526592 149.05125 
L 361.421402 149.018535 
L 362.316212 149.100321 
L 374.843556 148.675037 
L 375.738367 148.724108 
L 376.633177 148.642321 
L 377.527987 148.724108 
L 380.212418 148.675037 
L 388.265711 149.296607 
L 388.265711 149.296607 
" clip-path="url(#p441150f1d3)" style="fill: none; stroke: #000000; stroke-linecap: square"/>
   </g>
  </g>
 </g>
 <defs>
  <clipPath id="p441150f1d3">
   <rect x="0.72" y="1.44" width="387.36" height="227.52"/>
  </clipPath>
 </defs>
</svg>
