<?xml version="1.0" encoding="utf-8" standalone="no"?>
<!DOCTYPE svg PUBLIC "-//W3C//DTD SVG 1.1//EN"
  "http://www.w3.org/Graphics/SVG/1.1/DTD/svg11.dtd">
<svg xmlns:xlink="http://www.w3.org/1999/xlink" width="388.8pt" height="230.4pt" viewBox="0 0 388.8 230.4" xmlns="http://www.w3.org/2000/svg" version="1.1">
 <metadata>
  <rdf:RDF xmlns:dc="http://purl.org/dc/elements/1.1/" xmlns:cc="http://creativecommons.org/ns#" xmlns:rdf="http://www.w3.org/1999/02/22-rdf-syntax-ns#">
   <cc:Work>
    <dc:type rdf:resource="http://purl.org/dc/dcmitype/StillImage"/>
    <dc:date>2025-05-03T18:17:48.491861</dc:date>
    <dc:format>image/svg+xml</dc:format>
    <dc:creator>
     <cc:Agent>
      <dc:title>Matplotlib v3.8.1, https://matplotlib.org/</dc:title>
     </cc:Agent>
    </dc:creator>
   </cc:Work>
  </rdf:RDF>
 </metadata>
 <defs>
  <style type="text/css">*{stroke-linejoin: round; stroke-linecap: butt}</style>
 </defs>
 <g id="figure_1">
  <g id="patch_1">
   <path d="M 0 230.4 
L 388.8 230.4 
L 388.8 0 
L 0 0 
z
" style="fill: #ffffff"/>
  </g>
  <g id="axes_1">
   <g id="line2d_1">
    <path d="M 18.327273 129.079381 
L 37.108364 128.98548 
L 44.738182 128.609875 
L 55.889455 127.403599 
L 58.237091 127.056893 
L 60.584727 126.724625 
L 62.345455 126.536823 
L 64.693091 126.57294 
L 66.453818 126.876312 
L 67.627636 127.288032 
L 68.801455 127.916451 
L 69.975273 128.812123 
L 71.149091 130.025619 
L 72.322909 131.542484 
L 73.496727 133.514415 
L 74.670545 136.049759 
L 75.844364 139.047353 
L 77.018182 142.528969 
L 78.192 146.501683 
L 79.952727 153.313193 
L 83.474182 167.513909 
L 84.061091 169.240231 
L 84.648 170.540421 
L 85.234909 171.479411 
L 85.821818 172.006692 
L 86.408727 171.912818 
L 86.995636 170.995462 
L 87.582545 169.254685 
L 88.169455 166.47377 
L 88.756364 162.862192 
L 89.343273 158.073238 
L 89.930182 152.14306 
L 91.104 136.728734 
L 92.277818 117.067196 
L 95.212364 58.862835 
L 96.386182 37.510853 
L 96.973091 28.366162 
L 97.56 21.114542 
L 98.146909 15.755008 
L 98.733818 12.634464 
L 99.320727 11.781818 
L 99.907636 13.060787 
L 100.494545 17.264611 
L 101.081455 23.411349 
L 102.255273 42.632447 
L 103.429091 69.148591 
L 106.950545 161.179201 
L 108.124364 186.135359 
L 109.298182 204.113735 
L 109.885091 210.368991 
L 110.472 215.201276 
L 111.058909 217.823417 
L 111.645818 218.618182 
L 112.232727 217.758261 
L 112.819636 215.201308 
L 113.406545 210.946878 
L 113.993455 205.753394 
L 115.167273 191.386565 
L 116.341091 175.206719 
L 119.862545 124.326529 
L 121.036364 110.725277 
L 122.210182 100.648934 
L 122.797091 97.095141 
L 123.384 94.306951 
L 123.970909 92.262793 
L 124.557818 91.056572 
L 125.144727 90.717102 
L 125.731636 91.186597 
L 126.318545 92.335064 
L 126.905455 94.054143 
L 128.079273 99.254838 
L 129.253091 105.965136 
L 132.187636 125.857836 
L 133.948364 136.649283 
L 135.122182 142.247253 
L 135.709091 144.580339 
L 136.882909 147.895778 
L 137.469818 149.022579 
L 138.056727 149.76658 
L 138.643636 150.062687 
L 139.230545 149.96157 
L 139.817455 149.571526 
L 140.404364 148.870889 
L 140.991273 147.924655 
L 142.165091 145.447121 
L 143.925818 140.614836 
L 146.273455 133.774446 
L 147.447273 130.726272 
L 148.621091 128.255939 
L 149.794909 126.392353 
L 150.381818 125.691703 
L 151.555636 124.745473 
L 152.729455 124.36987 
L 153.316364 124.362646 
L 153.903273 124.470993 
L 155.077091 124.976615 
L 156.837818 126.190101 
L 159.185455 128.032022 
L 160.359273 128.78323 
L 161.533091 129.382755 
L 162.706909 129.75836 
L 163.880727 129.902825 
L 165.641455 129.772807 
L 167.989091 129.202176 
L 173.271273 128.125921 
L 175.032 128.097029 
L 176.792727 128.349839 
L 178.553455 128.812123 
L 180.314182 129.585005 
L 183.248727 131.412468 
L 186.183273 133.449405 
L 187.944 134.496762 
L 189.117818 134.937393 
L 190.291636 134.995179 
L 190.878545 134.944617 
L 192.052364 134.388415 
L 192.639273 133.969472 
L 193.813091 132.62597 
L 194.986909 130.762386 
L 196.160727 128.3065 
L 197.921455 123.806463 
L 200.269091 117.182767 
L 201.442909 114.322401 
L 202.616727 112.112129 
L 203.203636 111.317586 
L 203.790545 110.833605 
L 204.377455 110.653037 
L 204.964364 110.768608 
L 205.551273 111.187593 
L 206.138182 111.880987 
L 206.725091 112.892217 
L 207.312 114.221284 
L 208.485818 117.608963 
L 210.246545 124.174845 
L 212.007273 130.97908 
L 213.768 136.909315 
L 214.941818 139.668539 
L 216.115636 141.59719 
L 216.702545 142.138893 
L 217.289455 142.38449 
L 217.876364 142.406187 
L 218.463273 142.160591 
L 219.050182 141.698307 
L 219.637091 141.048212 
L 220.810909 139.213498 
L 222.571636 135.522472 
L 226.093091 127.750316 
L 227.266909 125.800053 
L 228.440727 124.268747 
L 229.027636 123.712564 
L 230.201455 123.076907 
L 230.788364 122.939665 
L 231.375273 122.939665 
L 232.549091 123.264706 
L 233.722909 124.066498 
L 234.896727 125.048848 
L 236.657455 126.869091 
L 239.005091 129.361085 
L 240.765818 130.856288 
L 241.939636 131.600269 
L 243.113455 132.069784 
L 244.287273 132.329818 
L 245.461091 132.337042 
L 246.634909 132.134796 
L 247.808727 131.78085 
L 249.569455 130.971859 
L 253.677818 129.086604 
L 256.025455 128.414847 
L 259.546909 128.118697 
L 262.481455 128.284831 
L 272.458909 129.043265 
L 281.849455 129.585005 
L 284.784 130.220644 
L 289.479273 131.491922 
L 291.826909 131.860301 
L 294.174545 131.816963 
L 295.348364 131.549705 
L 296.522182 131.145209 
L 298.282909 130.292878 
L 300.043636 129.223845 
L 304.152 126.688511 
L 305.912727 125.97341 
L 307.086545 125.763937 
L 308.260364 125.691703 
L 309.434182 125.814498 
L 311.194909 126.377902 
L 313.542545 127.504726 
L 318.237818 129.881156 
L 320.585455 130.581805 
L 321.759273 130.704603 
L 322.933091 130.733493 
L 325.280727 130.444562 
L 328.802182 129.527219 
L 331.736727 128.768784 
L 334.084364 128.400401 
L 337.605818 128.407624 
L 344.061818 129.108274 
L 349.344 129.397202 
L 352.278545 129.310523 
L 355.8 128.732669 
L 359.908364 127.873111 
L 361.669091 127.786429 
L 362.842909 127.945344 
L 365.777455 128.754338 
L 369.885818 129.888379 
L 370.472727 129.960611 
L 370.472727 129.960611 
" clip-path="url(#p3dd7d019f4)" style="fill: none; stroke: #000000; stroke-linecap: square"/>
   </g>
  </g>
 </g>
 <defs>
  <clipPath id="p3dd7d019f4">
   <rect x="0.72" y="1.44" width="387.36" height="227.52"/>
  </clipPath>
 </defs>
</svg>
